# xmcd
#
# Track frame offsets: 
#        150
#        17520
#        34617
#        53820
#        72710
#        84925
#        97432
#        114577
#        132960
#        150092
#        169727
#        187382
#        206482
#        220812
#        241980
#        259167
#        277730
#        298302
#        313195
#
# Disc length: 4451 seconds
#
# Revision: 0
# Processed by: cddbd v1.5.1PL0 Copyright (c) Steve Scherf et al.
# Submitted via: ExactAudioCopy v0.95a5
#
DISCID=1a116113
DTITLE=ELO - ELO - Light Years [CD2]
DYEAR=1997
DGENRE=Electronic
TTITLE0=Sweet Talkin' Woman
TTITLE1=I'm Alive
TTITLE2=Shine A Little Love
TTITLE3=Ticket To The Moon
TTITLE4=Illusions In G Major
TTITLE5=So Serious
TTITLE6=Nightrider
TTITLE7=All Over The World
TTITLE8=Here Is The News
TTITLE9=The Diary Of Horace Wimp
TTITLE10=Across The Border
TTITLE11=Showdown
TTITLE12=Hold On Tight
TTITLE13=Wild West Hero
TTITLE14=Do Ya
TTITLE15=10538 Overture
TTITLE16=Getting To The Point
TTITLE17=Rockaria!
TTITLE18=Roll Over Beethoven
EXTD=Electric Light Orchestra - Light Years: The Very Best of Electric
EXTD=Light Orchestra - Disc 2
EXTT0=
EXTT1=
EXTT2=
EXTT3=
EXTT4=
EXTT5=
EXTT6=
EXTT7=
EXTT8=
EXTT9=
EXTT10=
EXTT11=
EXTT12=
EXTT13=
EXTT14=
EXTT15=
EXTT16=
EXTT17=
EXTT18=
PLAYORDER=
